<svg width="20" height="20" viewBox="0 0 20 20" fill="none" xmlns="http://www.w3.org/2000/svg">
<path d="M10 4.58337C10.7735 4.58337 11.5154 4.89066 12.0624 5.43765C12.6094 5.98463 12.9167 6.72649 12.9167 7.50004C12.9167 8.27359 12.6094 9.01545 12.0624 9.56244C11.5154 10.1094 10.7735 10.4167 10 10.4167C9.22645 10.4167 8.48459 10.1094 7.93761 9.56244C7.39062 9.01545 7.08333 8.27359 7.08333 7.50004C7.08333 6.72649 7.39062 5.98463 7.93761 5.43765C8.48459 4.89066 9.22645 4.58337 10 4.58337ZM4.16667 6.66671C4.63333 6.66671 5.06667 6.79171 5.44167 7.01671C5.31667 8.20837 5.66667 9.39171 6.38333 10.3167C5.96667 11.1167 5.13333 11.6667 4.16667 11.6667C3.50363 11.6667 2.86774 11.4033 2.3989 10.9345C1.93006 10.4656 1.66667 9.82975 1.66667 9.16671C1.66667 8.50367 1.93006 7.86778 2.3989 7.39894C2.86774 6.9301 3.50363 6.66671 4.16667 6.66671ZM15.8333 6.66671C16.4964 6.66671 17.1323 6.9301 17.6011 7.39894C18.0699 7.86778 18.3333 8.50367 18.3333 9.16671C18.3333 9.82975 18.0699 10.4656 17.6011 10.9345C17.1323 11.4033 16.4964 11.6667 15.8333 11.6667C14.8667 11.6667 14.0333 11.1167 13.6167 10.3167C14.3429 9.37857 14.6801 8.19684 14.5583 7.01671C14.9333 6.79171 15.3667 6.66671 15.8333 6.66671ZM4.58333 15.2084C4.58333 13.4834 7.00833 12.0834 10 12.0834C12.9917 12.0834 15.4167 13.4834 15.4167 15.2084V16.6667H4.58333V15.2084ZM0 16.6667V15.4167C0 14.2584 1.575 13.2834 3.70833 13C3.21667 13.5667 2.91667 14.35 2.91667 15.2084V16.6667H0ZM20 16.6667H17.0833V15.2084C17.0833 14.35 16.7833 13.5667 16.2917 13C18.425 13.2834 20 14.2584 20 15.4167V16.6667Z" fill="white" fill-opacity="0.6"/>
</svg>
