<svg xmlns="http://www.w3.org/2000/svg" baseProfile="tiny" version="1.2" width="340" height="340" viewBox="0 0 340 340">

<path d="M 222.00 62.50 L 213.00 61.50 L 202.00 46.50 L 188.00 40.50 L 173.00 42.50 L 166.00 46.50 L 156.00 61.50 L 139.50 57.00 L 150.50 39.00 L 164.00 28.50 L 180.00 22.50 L 197.00 21.50 L 219.00 28.50 L 235.50 43.00 L 236.50 45.00 L 225.50 55.00 L 222.00 62.50 Z" fill="#94c26f" />
<path d="M 189.00 94.50 L 173.00 91.50 L 166.50 85.00 L 163.50 78.00 L 164.50 63.00 L 169.50 55.00 L 177.00 50.50 L 192.00 50.50 L 200.50 57.00 L 204.50 64.00 L 205.50 74.00 L 202.50 84.00 L 198.00 89.50 L 189.00 94.50 Z" fill="#94c26f" />
<path d="M 254.00 93.50 L 238.00 91.50 L 229.50 79.00 L 229.50 67.00 L 232.50 60.00 L 246.00 50.50 L 249.50 53.00 L 253.50 65.00 L 255.50 80.00 L 254.00 93.50 Z" fill="#94c26f" />
<path d="M 137.00 187.50 L 142.50 167.00 L 143.50 149.00 L 142.50 134.00 L 134.50 100.00 L 136.50 66.00 L 154.00 69.50 L 155.50 81.00 L 159.50 90.00 L 168.00 98.50 L 181.00 103.50 L 196.00 101.50 L 202.00 97.50 L 212.50 83.00 L 214.50 71.00 L 220.00 70.50 L 220.50 79.00 L 225.50 91.00 L 235.00 99.50 L 249.50 103.00 L 236.50 147.00 L 184.00 128.50 L 175.00 127.50 L 169.00 137.50 L 163.00 137.50 L 159.50 142.00 L 155.50 177.00 L 145.00 180.50 L 137.00 187.50 Z" fill="#94c26f" />
<path d="M 191.50 85.00 L 195.50 80.00 L 195.50 74.00 L 191.00 69.50 L 187.00 69.50 L 182.50 75.00 L 182.50 82.00 L 186.00 85.50 L 191.50 85.00 Z" fill="#94c26f" />
<path d="M 245.50 85.00 L 249.50 80.00 L 248.50 74.00 L 240.00 71.50 L 235.50 80.00 L 239.00 85.50 L 245.50 85.00 Z" fill="#94c26f" />
<path d="M 219.50 124.00 L 231.50 116.00 L 231.00 110.50 L 227.00 109.50 L 217.00 116.50 L 205.00 114.50 L 200.00 109.50 L 194.50 111.00 L 194.50 116.00 L 199.00 120.50 L 208.00 124.50 L 219.50 124.00 Z" fill="#94c26f" />
<path d="M 56.00 185.50 L 44.00 180.50 L 35.00 180.50 L 21.50 185.00 L 30.50 170.00 L 41.00 159.50 L 55.00 151.50 L 63.00 151.50 L 66.50 158.00 L 56.00 185.50 Z" fill="#94c26f" />
<path d="M 194.00 311.50 L 172.00 311.50 L 145.00 304.50 L 126.00 292.50 L 118.50 285.00 L 109.50 270.00 L 106.50 258.00 L 106.50 243.00 L 109.50 232.00 L 113.50 225.00 L 125.00 214.50 L 130.50 233.00 L 135.00 234.50 L 137.50 232.00 L 134.50 222.00 L 134.50 207.00 L 140.50 195.00 L 150.00 187.50 L 160.00 185.50 L 170.00 187.50 L 174.50 191.00 L 175.50 196.00 L 169.00 204.50 L 149.50 213.00 L 146.50 235.00 L 149.00 240.50 L 229.00 273.50 L 245.50 275.00 L 237.00 282.50 L 226.00 286.50 L 201.00 288.50 L 170.00 280.50 L 156.00 272.50 L 145.00 261.50 L 140.50 263.00 L 140.50 267.00 L 151.00 278.50 L 172.00 290.50 L 184.00 294.50 L 217.00 296.50 L 237.50 291.00 L 217.00 305.50 L 194.00 311.50 Z" fill="#94c26f" />
<path d="M 23.00 250.50 L 15.50 230.00 L 15.50 207.00 L 17.50 201.00 L 28.00 191.50 L 34.00 189.50 L 48.00 190.50 L 57.50 197.00 L 60.50 207.00 L 47.00 210.50 L 32.50 223.00 L 26.50 233.00 L 23.00 250.50 Z" fill="#94c26f" />
<path d="M 110.00 298.50 L 94.00 296.50 L 84.00 291.50 L 72.50 278.00 L 67.50 261.00 L 68.50 243.00 L 74.50 228.00 L 88.00 214.50 L 105.00 208.50 L 116.50 210.00 L 102.50 227.00 L 97.50 246.00 L 101.50 273.00 L 108.50 286.00 L 117.50 296.00 L 110.00 298.50 Z" fill="#94c26f" />
<path d="M 71.00 290.50 L 52.00 284.50 L 43.00 278.50 L 34.50 267.00 L 31.50 257.00 L 32.50 241.00 L 37.50 230.00 L 44.00 222.50 L 55.00 216.50 L 71.50 218.00 L 64.50 229.00 L 59.50 245.00 L 60.50 269.00 L 71.00 290.50 Z" fill="#94c26f" />
<path d="M 192.00 319.50 L 160.00 317.50 L 141.00 311.50 L 129.00 304.50 L 97.00 305.50 L 83.00 299.50 L 65.00 297.50 L 54.00 293.50 L 37.00 282.50 L 21.50 265.00 L 12.50 248.00 L 8.50 228.00 L 8.50 208.00 L 11.50 193.00 L 21.50 171.00 L 40.00 151.50 L 57.00 143.50 L 66.00 144.50 L 73.50 152.00 L 73.50 162.00 L 65.50 179.00 L 64.50 197.00 L 74.00 211.50 L 80.00 212.50 L 93.00 204.50 L 104.00 201.50 L 119.00 203.50 L 124.50 202.00 L 135.50 166.00 L 136.50 144.00 L 127.50 99.00 L 129.50 64.00 L 127.00 63.50 L 123.00 69.50 L 118.50 66.00 L 123.00 58.50 L 131.00 56.50 L 134.50 53.00 L 141.50 39.00 L 153.00 27.50 L 166.00 19.50 L 184.00 14.50 L 207.00 15.50 L 218.00 19.50 L 232.00 28.50 L 246.00 43.50 L 257.00 43.50 L 265.00 47.50 L 274.50 60.00 L 276.50 74.00 L 273.50 86.00 L 265.00 96.50 L 257.50 101.00 L 254.50 119.00 L 243.50 146.00 L 243.50 153.00 L 253.00 161.50 L 255.00 162.50 L 263.50 150.00 L 276.00 138.50 L 309.00 116.50 L 313.50 119.00 L 316.00 127.50 L 322.00 125.50 L 325.50 128.00 L 318.50 171.00 L 318.50 175.00 L 325.50 185.00 L 325.50 199.00 L 321.50 206.00 L 311.50 213.00 L 307.50 232.00 L 259.00 264.50 L 247.50 291.00 L 235.00 303.50 L 218.00 313.50 L 192.00 319.50 Z" fill="#0d3c2e" />
<path d="M 222.50 62.00 L 236.50 44.00 L 220.00 28.50 L 199.00 21.50 L 177.00 22.50 L 163.00 28.50 L 147.50 42.00 L 139.50 55.00 L 141.00 58.50 L 156.00 61.50 L 160.50 53.00 L 170.00 44.50 L 178.00 41.50 L 190.00 41.50 L 202.00 46.50 L 213.00 62.50 L 222.50 62.00 Z" fill="#0d3c2e" />
<path d="M 186.50 95.00 L 196.00 91.50 L 203.50 83.00 L 205.50 66.00 L 202.50 59.00 L 195.00 51.50 L 178.00 49.50 L 172.00 52.50 L 165.50 60.00 L 163.50 79.00 L 172.00 91.50 L 186.50 95.00 Z" fill="#0d3c2e" />
<path d="M 256.50 93.00 L 263.50 88.00 L 267.50 81.00 L 267.50 62.00 L 260.00 52.50 L 245.00 50.50 L 237.00 54.50 L 231.50 61.00 L 228.50 71.00 L 229.50 81.00 L 232.50 87.00 L 241.00 93.50 L 256.50 93.00 Z" fill="#0d3c2e" />
<path d="M 135.50 190.00 L 143.00 182.50 L 155.50 177.00 L 160.50 141.00 L 164.00 137.50 L 169.00 138.50 L 176.00 127.50 L 202.00 134.50 L 236.50 148.00 L 250.50 103.00 L 238.00 100.50 L 228.50 94.00 L 222.50 85.00 L 219.00 69.50 L 213.50 71.00 L 212.50 82.00 L 208.50 90.00 L 200.00 98.50 L 191.00 102.50 L 178.00 102.50 L 172.00 100.50 L 161.50 92.00 L 156.50 83.00 L 155.00 69.50 L 136.50 66.00 L 133.50 90.00 L 142.50 139.00 L 142.50 162.00 L 135.50 190.00 Z" fill="#0d3c2e" />
<path d="M 191.00 84.50 L 183.50 83.00 L 182.50 76.00 L 186.00 70.50 L 194.50 73.00 L 195.50 78.00 L 191.00 84.50 Z" fill="#0d3c2e" />
<path d="M 244.00 85.50 L 236.50 82.00 L 236.50 76.00 L 241.00 71.50 L 245.00 71.50 L 249.50 78.00 L 244.00 85.50 Z" fill="#0d3c2e" />
<path d="M 217.00 124.50 L 209.00 124.50 L 200.00 120.50 L 194.50 115.00 L 194.50 112.00 L 199.00 109.50 L 206.00 115.50 L 218.00 116.50 L 229.00 109.50 L 231.50 112.00 L 229.50 118.00 L 217.00 124.50 Z" fill="#0d3c2e" />
<path d="M 263.50 165.00 L 310.00 132.50 L 308.50 126.00 L 306.00 125.50 L 277.00 145.50 L 266.50 157.00 L 262.50 163.00 L 263.50 165.00 Z" fill="#0d3c2e" />
<path d="M 247.50 167.00 L 243.00 161.50 L 233.00 155.50 L 205.00 143.50 L 182.00 136.50 L 179.00 136.50 L 176.50 141.00 L 219.00 158.50 L 247.50 167.00 Z" fill="#0d3c2e" />
<path d="M 257.50 258.00 L 301.50 228.00 L 316.50 145.00 L 316.00 137.50 L 270.50 169.00 L 255.50 257.00 L 257.50 258.00 Z" fill="#0d3c2e" />
<path d="M 224.50 261.00 L 239.50 174.00 L 168.00 147.50 L 163.50 177.00 L 173.00 179.50 L 180.50 186.00 L 182.50 200.00 L 173.00 210.50 L 157.50 218.00 L 155.50 234.00 L 221.00 261.50 L 224.50 261.00 Z" fill="#0d3c2e" />
<path d="M 56.50 186.00 L 66.50 161.00 L 66.50 155.00 L 64.00 151.50 L 53.00 151.50 L 39.00 160.50 L 28.50 172.00 L 21.50 185.00 L 22.00 186.50 L 32.00 181.50 L 47.00 181.50 L 56.50 186.00 Z" fill="#0d3c2e" />
<path d="M 240.50 267.00 L 247.50 264.00 L 261.50 183.00 L 261.00 175.50 L 257.00 177.50 L 247.00 176.50 L 245.50 180.00 L 232.50 260.00 L 233.00 265.50 L 240.50 267.00 Z" fill="#0d3c2e" />
<path d="M 188.50 312.00 L 216.00 306.50 L 230.00 298.50 L 239.50 289.00 L 220.00 295.50 L 204.00 296.50 L 179.00 292.50 L 164.00 286.50 L 149.00 276.50 L 140.50 266.00 L 142.00 261.50 L 145.00 261.50 L 160.00 275.50 L 174.00 282.50 L 198.00 288.50 L 228.00 286.50 L 242.00 279.50 L 246.50 274.00 L 233.00 274.50 L 151.00 241.50 L 147.50 238.00 L 150.50 212.00 L 166.00 206.50 L 175.50 196.00 L 173.50 189.00 L 169.00 186.50 L 152.00 186.50 L 147.00 188.50 L 135.50 203.00 L 133.50 218.00 L 137.50 230.00 L 136.50 233.00 L 130.50 232.00 L 126.00 213.50 L 110.50 229.00 L 105.50 247.00 L 107.50 265.00 L 116.50 283.00 L 133.00 298.50 L 163.00 310.50 L 188.50 312.00 Z" fill="#0d3c2e" />
<path d="M 314.50 202.00 L 318.50 197.00 L 317.00 186.50 L 314.50 202.00 Z" fill="#0d3c2e" />
<path d="M 23.50 252.00 L 25.50 237.00 L 34.50 221.00 L 44.00 212.50 L 61.50 207.00 L 57.50 196.00 L 49.00 190.50 L 42.00 188.50 L 29.00 190.50 L 22.00 194.50 L 16.50 203.00 L 14.50 226.00 L 20.50 248.00 L 23.50 252.00 Z" fill="#0d3c2e" />
<path d="M 114.50 298.00 L 118.50 296.00 L 107.50 284.00 L 99.50 266.00 L 98.50 243.00 L 103.50 226.00 L 116.50 210.00 L 103.00 208.50 L 86.00 215.50 L 73.50 229.00 L 67.50 245.00 L 67.50 265.00 L 71.50 277.00 L 82.00 290.50 L 99.00 298.50 L 114.50 298.00 Z" fill="#0d3c2e" />
<path d="M 71.50 290.00 L 62.50 275.00 L 59.50 250.00 L 64.50 230.00 L 72.50 218.00 L 57.00 215.50 L 46.00 220.50 L 34.50 234.00 L 31.50 244.00 L 31.50 259.00 L 34.50 268.00 L 45.00 280.50 L 61.00 288.50 L 71.50 290.00 Z" fill="#0d3c2e" />
<path d="M 258.00 257.50 L 257.50 248.00 L 270.50 171.00 L 316.00 138.50 L 300.50 228.00 L 258.00 257.50 Z" fill="#dbd06d" />
<path d="M 224.00 261.50 L 156.50 234.00 L 158.50 218.00 L 177.00 208.50 L 183.50 199.00 L 183.50 191.00 L 180.50 185.00 L 173.00 179.50 L 164.50 177.00 L 169.00 148.50 L 238.50 174.00 L 224.00 261.50 Z" fill="#dbd06d" />
<path d="M 242.00 266.50 L 234.00 265.50 L 232.50 263.00 L 246.50 178.00 L 260.00 177.50 L 259.50 191.00 L 247.50 261.00 L 242.00 266.50 Z" fill="#dbd06d" />
<path d="M 256.00 92.50 L 254.50 70.00 L 249.00 50.50 L 256.00 53.50 L 259.00 52.50 L 267.50 65.00 L 266.50 82.00 L 263.00 85.50 L 259.00 82.50 L 256.00 92.50 Z" fill="#fffdef" />
<path d="M 278.00 150.50 L 276.00 147.50 L 297.00 132.50 L 300.00 133.50 L 300.00 130.50 L 303.50 132.00 L 300.00 138.50 L 278.00 150.50 Z" fill="#fffdef" />
<path d="M 240.00 163.50 L 192.00 147.50 L 189.00 142.50 L 185.00 144.50 L 178.50 141.00 L 183.00 137.50 L 200.00 142.50 L 237.00 158.50 L 240.00 163.50 Z" fill="#fffdef" />
</svg>