<?xml version="1.0" encoding="UTF-8"?>
<svg version="1.1" viewBox="0 0 1360 1360" width="340" height="340" xmlns="http://www.w3.org/2000/svg">
<path transform="translate(733,58)" d="m0 0h70l27 5 26 8 20 8 19 10 24 16 16 13 8 7 5 4v2l4 2 11 12 10 13 8 10 1 3 8 1 9-1h10l20 3 14 5 15 8 12 9 10 10 9 12 10 19 4 13 5 24v26l-4 22-4 15-7 16-7 11-8 10-12 12-16 11-15 8-1 2-4 35-5 19-4 15-10 27-17 40-11 33-5 19-1 5v13l15 11 9 7 10 9 9 7h3l6-10 8-15 14-19 9-9 2-3h2l2-4 8-7 7-7 14-11 12-11 20-15 14-10 19-13 20-14 14-9 30-20 12-5h9l7 4 4 5 4 16 4 13 3 5 5-1 9-3h13l8 5 4 7v13l-5 28-13 75-10 60-1 9 11 13 9 13 7 14 4 18 1 14-3 19-4 12-9 17-12 14-10 8-14 8-6 3h-2l-4 17-4 28-5 22-4 13-10 9-16 11-17 12-19 13-23 16-16 10-15 10-24 15-54 32-3 7-6 24-9 24-11 23-12 19-12 16-12 14-15 15-8 7-10 8-19 13-21 12-21 10-28 10-24 7-15 3-39 5-20 1h-41l-23-1-33-5-25-5-32-9-20-7-23-10-26-13-14-8-3-2-9 1-13 3-28 3h-51l-24-3-25-8-20-9-10-5-27-1-44-8-35-12-20-9-21-12-20-14-14-11-12-11-8-7-10-10-7-8-13-16-13-18-14-22-13-23-8-17-8-22-7-28-3-16-4-30-1-15v-44l2-19 6-34 6-23 11-31 12-26 11-19 11-17 18-24 9-10 28-28 13-10 17-12 18-10 14-6 18-5h27l14 4 12 7 11 11 8 16 2 8v15l-5 21-9 21-11 24-7 20-6 28-1 16 2 17 6 21 9 17 9 11 11 11 9 5 7 2h5l27-18 14-8 21-9 19-6 15-3 8-1h18l33 5 16 4 5-1 5-12 7-26 16-51 9-29 8-34 4-36v-26l-3-35-4-29-6-31-14-60-4-23-4-36v-66l5-42 3-16v-3l-6 2-9 17-3 3h-13l-7-4-3-4-1-9 4-14 7-11 8-6 11-5 3-1 15-1 6-3 6-10 11-23 14-23 8-11 18-20 11-11h2l1-3 8-7 13-10 17-11 19-11 26-11 20-6 12-3 14-2z" fill="#0A3E35"/>
<path transform="translate(631,746)" d="m0 0h28l19 4 12 6 5 4 6 9 2 5v10l-4 11-6 9-8 9-10 8-12 7-15 7-12 4-13 4-11 2-9 6-3 5-1 4v8l3 8-1 9-5 22-4 27-1 5v13l5 8 8 6 15 5 12 5 16 7 10 3 19 8 21 8 24 10 15 6 12 5 13 6 10 3 12 6 13 5 60 24 11 4 14 6 10 3 10 5 10 4 12 6 9 4 10 2h32l10-3 3-1-2 4-4 6-5 5-12 10-12 7-16 8-20 7-12 4-13 2-24 5-12 1h-39l-18-2-28-5-13-1-18-6-15-3-13-5-11-3-9-5-10-3-6-4-10-4-9-5-12-7-11-7-16-12-10-9-13-13-9-11-5-3h-8l-6 4-2 4v11l10 13 8 10v2l4 2 6 7 8 7 11 9 14 10 14 9 22 12 17 8 11 5 4 2 8 2 15 6 10 2 14 5 25 4 21 4 14 1h50l21-2 25-5 14-3 26-9 17-7h3l-16 17-11 9-13 11-18 11-18 10-17 7-16 6-23 7-41 7-13 2-13 1h-45l-21-2-39-6-36-9-25-9-18-8-23-12-17-11-14-10-16-13-21-21-11-14-8-11-10-16-7-14-7-17-7-21-5-33-1-9v-17l6-42 5-12 3-11 5-8 5-10 5-8 9-12 12-13 11-11 15-10 5-2 1 2 1 21 2 14 5 15 3 11 4 6 4 9 6 2h9l5-3 4-7-2-9-4-15-4-11-2-18v-27l1-16 5-13 2-4 2-8 6-10 10-15 12-12 13-10 17-8z" fill="#98C074"/>
<path transform="translate(673,592)" d="m0 0 7 1 20 8 21 8 15 6 13 4 9 4 15 5 8 3 15 5 7 3 14 5 7 3 10 3 13 5 16 6 15 5 13 5 14 5 9 3 13 5 9 3 23 9 1 2-4 17-5 32-12 72-7 43-6 36-7 43-4 24-3 19-3 14-4 30-5 21-6-1-12-4-5-3-14-5-9-4-10-4-6-3-11-4-9-4-11-4-5-3-13-4-11-5-16-7-9-3-10-5-13-4-7-4-12-4-8-4-10-3-10-5-11-4-24-10-15-6-8-4-1-6 3-20 5-25 2-15 4-3 16-4 20-9 14-8 12-8 10-8 8-8 8-11 7-16 1-4v-25l-4-9-5-10-8-10-7-7-11-7-6-4-22-7-15-3 2-17 5-26 3-31 5-25z" fill="#FDCF5C"/>
<path transform="translate(550,265)" d="m0 0 11 1 17 5 25 5 17 5 1 1 1 18 5 30 9 21 10 16 10 11 5 5 9 8 10 7 15 7 19 6 10 2h33l14-3 17-6 10-6 14-10 7-6 7-8 10-14 8-13 3-9 4-8 6-31 1-12 2-4 5-1h10l7 1 2 2 1 25 8 32 10 19 9 12 8 9 4 3v2l3 1v2l6 2 6 5 9 4 13 5 24 5 15 2 1 4-4 19-4 16-2 10-6 17-5 13-18 45-8 23-7 27-2 7-9-3-10-5-10-4-5-3-10-3-5-3-17-6-16-6-12-5-14-5-23-8-12-4-8-2-13-5-12-3-10-4-15-4-9-4-19-4h-9l-8 3-3 4-11 25-7 10-11-2h-10l-7 3-6 10-2 16-7 42-3 25-5 30-3 30-1 2-15 4-17 6-12 7-16 12-9 9-10 13-1 2h-2l1-5 5-13 6-15 5-17 4-12 4-20 3-13 3-34 1-14v-32l-3-42-3-20-7-36-4-14-3-16-4-14-4-25-4-21-1-13v-74l5-25 2-9 2-14z" fill="#98C074"/>
<path transform="translate(1267,551)" d="m0 0h1v8l-6 36-6 37-5 27-8 48-4 22-7 42-3 15-5 30-11 55-4 25-4 20-5 5-11 7-26 18-19 13-10 7-57 38-16 10-18 12-16 10h-2l5-25 3-25 5-21 3-25 5-22 2-21 6-29 3-25 5-23 2-19 5-23 4-31 4-19 3-27 5-21 5-6 19-13 9-7 12-8 14-10 15-10 13-9 15-10 10-7 17-12 16-11 28-20z" fill="#FCCF5C"/>
<path transform="translate(423,837)" d="m0 0h22l19 3 3 1-1 3-8 7-14 14-9 11-7 11-12 20-8 19-7 21-4 26-3 19v28l7 45 5 13 3 12 5 11 5 12 9 17 6 10 12 17 8 10 11 12 6 5 2 5h2v2l-22 3h-49l-10-2-24-7-7-4-10-4-17-11-12-11-11-11-13-18-10-18-7-16-7-24-3-23-1-15v-15l2-27 3-17 4-12 3-12 5-10 4-9 8-14 10-14 12-14 10-10 12-9 11-7 16-8 17-7 28-7z" fill="#98C074"/>
<path transform="translate(757,88)" d="m0 0h24l29 4 19 4 23 8 18 8 14 8 10 7 11 8 12 11 7 6 7 8 12 13 6 9-1 3-10 6-10 8-10 9-9 10-5 8-3 3-5 12-5 10-7-1h-31l-7-12-4-10-9-15-13-15-11-9-11-7-15-8-25-7-8-1h-22l-17 4-14 3-21 11-11 8-10 9-6 7-6 8-7 12-3 7-6 12-16-4-18-4-15-4-17-3-1-3 8-18 10-18 11-16 11-14 18-18 17-13 14-10 24-13 19-8 18-6 38-6z" fill="#98C074"/>
<path transform="translate(246,866)" d="m0 0h14l21 3 9 5-3 6-6 7-6 9-9 16-7 14-7 18-7 24-2 12-3 32v19l3 33 3 15 4 12 3 12 5 10 4 10 9 17 11 16 5 6v2l-12-3-13-4-17-4-11-4-12-5-14-6-17-10-11-8-12-11-10-11-10-15-7-12-7-18-6-28-1-7v-21l3-17 6-25 8-19 5-8 7-11 11-14 8-8 13-10 15-9 17-7 10-2z" fill="#98C074"/>
<path transform="translate(732,201)" d="m0 0h15l16 2 10 3 15 8v2l4 2 8 7v2l3 1 7 11 8 16 3 8 2 14v24l-3 17-4 9-6 13-8 11-11 12-15 10-21 7-7 1h-15l-14-3-16-5-13-8-10-9-9-11-6-10-7-16-2-16v-22l2-20 10-23 8-11 7-7 12-9 15-7 10-2z" fill="#98C074"/>
<path transform="translate(992,204)" d="m0 0h23l18 6 10 6 9 7 9 11 9 17 5 27v22l-4 23-5 12-6 10-7 9-5 6-11 8-12 6-12 2-11 1h-12l-17-2-10-3-14-8-12-11-7-11-3-6-3-5-5-23-1-14 2-17 4-19 10-18 9-11 9-8 12-8 22-8z" fill="#98C074"/>
<path transform="translate(1046,705)" d="m0 0h2v13l-3 17-4 20-2 17-6 28-1 15-6 26-3 25-5 24-3 24-5 24-3 21-5 21-3 20-4 19-3 27-3 13-3 3-16 6-5 1h-15l-18-6-1-3 6-34 4-27 9-54 6-38 4-22 4-27 4-23 4-25 4-22 3-22 4-19 4-28 2-10 12 1 8 1h20l10-2z" fill="#FBCF5C"/>
<path transform="translate(151,759)" d="m0 0h15l14 2 18 5 19 10 10 7 3 3 5 18 3 10 8 15v2l-34 6-24 10-6 4-7 4-11 8-11 10-8 7-9 11-10 14-8 14-8 17-6 15-4 18-4 17-2 22-3-3-6-15-5-13-4-16-4-12-4-18-4-15-2-26v-34l2-25 3-9 3-7 3-10 7-10 7-8 9-8 14-8 10-5 21-6z" fill="#98C074"/>
<path transform="translate(232,608)" d="m0 0h17l9 3 5 5 3 6 1 12-2 12-11 24-10 22-7 18-5 23-3 11-2 1-19-10-18-6-9-2-10-1h-24l-11 1-29 9-16 9h-2l1-4 8-16 9-17 9-14 12-16 13-15 12-12 11-9 13-10 14-9 21-11 11-3z" fill="#98C074"/>
<path transform="translate(1e3 204)" d="m0 0h15l18 6 10 6 9 7 9 11 9 17 5 27v22l-4 23-5 12-6 10-7 9-5 6-6 3-15 9-4-1v-24l-2-33-2-21-5-32-8-27-9-22-3-5v-2z" fill="#FCFCEA"/>
<path transform="translate(719,548)" d="m0 0h7l11 4 19 5 7 3 17 4 9 4 15 4 12 5 11 4 20 7 12 5 20 8 16 7 9 4 16 7 19 10 15 9 21 14 9 7 7 8 1 5-8-1-11-5-16-5-10-4-14-5-8-3-9-3-14-5-13-5-18-6-10-4-14-5-8-3-10-3-8-4-13-4-8-4-15-5-20-8-11-4-9-4-17-6-12-5-6-3 1-5 4-8z" fill="#F8FAE5"/>
<path transform="translate(1229,505)" d="m0 0 4 1 5 17 2 4v3l-21 14-18 13-14 10-18 13-14 10-36 26-12 8-14 10-23 16-11 7-4 3h-2l2-6 10-16 12-16 12-14 15-15 8-7 17-14 17-12 10-7 15-10 17-11 15-10 17-11z" fill="#F9FAE6"/>
<path transform="translate(792,438)" d="m0 0 7 1 10 8 8 8 5 4 17 7 4 1h25l21-9 9-8 4-6 8-4h7l9 5 3 3 1 10-3 7-6 9-9 8-11 7-8 4-17 6-4 1h-34l-26-9-15-10-12-11-5-8-1-2v-10l3-6 5-4z" fill="#0A3D34"/>
<path transform="translate(752,281)" d="m0 0h9l9 3 8 6 4 6 2 8v12l-2 9-5 8-9 8-8 3h-8l-8-3-9-8-4-11v-12l3-12 5-8 8-7z" fill="#0A3D34"/>
<path transform="translate(965,288)" d="m0 0h15l8 3 7 8 4 8 1 10-5 13-4 6-8 7-3 1h-16l-7-3-5-5-5-8-1-3v-17l4-9 7-8z" fill="#0A3E35"/>
<path transform="translate(1113,585)" d="m0 0 2 1-7 7-2-1zm-9 8 2 1-11 11-5 14 2 7 5-2 4-2 6-1 11-8 6-4 2 2-16 11-17 12-23 16-11 7-4 3h-2l2-6 10-16 12-16 12-14z" fill="#F1F5DC"/>
<path transform="translate(1119,582)" d="m0 0 3 1-1 5-12 17-10 10-1 3 5-2 5-6 14-7h3l1 5-12 9-9 6h-6l-5 4-3-1-2-7 5-14 12-12 8-7z" fill="#FEFEFD"/>
<path transform="translate(1268,748)" d="m0 0h3l3 8 1 6v16l-3 13-4 8-7 8h-2l1-12 5-26z" fill="#98C073"/>
<path transform="translate(1229,505)" d="m0 0 4 1 5 17 2 4v3l-8 5h-4l-2-3-1-8-2-2-6 1-8 3-2-4 5-3 2-4 8-6z" fill="#F6F9F2"/>
<path transform="translate(730,798)" d="m0 0h2l-1 6-6 12-9 11-9 9-10 7-16 10-14 7-3-1 6-4 5-4 8-4 4-3 8-2v-2h2l1-4 4-4 3-1 1-3 4-2 1-2 4-1 1-3 5-5 3-5z" fill="#0A2F2A"/>
<path transform="translate(954,642)" d="m0 0 6 2 12 8 3 1 2 3-1 4-2 2-9-1-6-3-4-6-3-4v-5z" fill="#FEFEFD"/>
<path transform="translate(700,726)" d="m0 0 4 1 9 7 8 8 7 10 6 13v5l-2-1v-2l-3-1-5-12-2-6-3-1-6-7-5-5-7-6z" fill="#0A302A"/>
<path transform="translate(939,823)" d="m0 0 1 2v16l-3 11-3 16-2 6h-1v-12l6-36z" fill="#0A302B"/>
<path transform="translate(930,875)" d="m0 0h1l1 7v9l-3 9-2 13-3 8h-1v-11l6-34z" fill="#0A302B"/>
<path transform="translate(946,780)" d="m0 0 2 2v13l-3 10-2 11-1 2h-2v-12l4-22z" fill="#0A302A"/>
<path transform="translate(1209,587)" d="m0 0 4 1v2l-29 20-9 6-3-1 3-1v-2h2l1-3 6-1v-2h3v-2l5-5 8-5 2 1v-2z" fill="#0A322C"/>
<path transform="translate(968,828)" d="m0 0h1l-1 15-4 18h-1v-10l-2-4 2-13 2-4z" fill="#0A302A"/>
<path transform="translate(954,735)" d="m0 0 2 1v7l-3 9-2 15-3 7h-1v-11l5-27z" fill="#0A312B"/>
<path transform="translate(975,782)" d="m0 0h1v13l-3 15-2 2-2-13 1-10z" fill="#0A2F2A"/>
<path transform="translate(922,927)" d="m0 0h1l1 7-3 11-2 15-3 3v-12l4-21z" fill="#0A302A"/>
<path transform="translate(912,979)" d="m0 0h3l1 7-3 8-3 14-2 2v-12z" fill="#0A312B"/>
<path transform="translate(983,737)" d="m0 0h1v10l-3 15-2 2-1-1v-15l2-7z" fill="#0A2F2A"/>
<path transform="translate(960,876)" d="m0 0h1v9l-2 12-3 2-1-14 2-6z" fill="#0A302A"/>
<path transform="translate(1037,778)" d="m0 0 3 1v8l-3 9-2 5-1 5h-1v-11z" fill="#0A302A"/>
<path transform="translate(572,1047)" d="m0 0h8l6 4 3 4v3l-2-1-5-5h-12l-4 2 1-4z" fill="#0A322C"/>
<path transform="translate(733,58)" d="m0 0h12v1l-20 3-20 4h-7l4-2 12-3 14-2z" fill="#B7D39A"/>
<path transform="translate(507,225)" d="m0 0h14l-3 2-11 1-16 7-5 2 5-5 13-6z" fill="#C5DBA9"/>
<path transform="translate(1046,732)" d="m0 0 2 1v7l-3 8-2 5h-1v-9l2-9z" fill="#0A302A"/>
<path transform="translate(1030,825)" d="m0 0 2 2v7l-2 7h-2v3h-2v-7l3-10z" fill="#0A2F2A"/>
<path transform="translate(685,1276)" d="m0 0h15l2 1 16 1v1h-29l-4-1z" fill="#0F352D"/>
<path transform="translate(626,940)" d="m0 0 7 1 19 8 1 2-8-1-1-2-16-5z" fill="#0A302B"/>
<path transform="translate(1256,634)" d="m0 0 2 4-3 15-2 2-1-1v-7l2-10z" fill="#0A312B"/>
<path transform="translate(906,1027)" d="m0 0h1l-1 13h-2v4h-2v-8l2-8z" fill="#0A312B"/>
<path transform="translate(681,718)" d="m0 0 9 1 6 3 3 2-1 3-10-5-7-3z" fill="#0A312B"/>
<path transform="translate(1108,659)" d="m0 0h2l-1 3-13 9-4 1 1-2h2l2-4 8-5z" fill="#0A322C"/>
<path transform="translate(670,606)" d="m0 0h1v11l-3 12-2-4 2-11z" fill="#0A312B"/>
<path transform="translate(631,882)" d="m0 0h1v11l-2 7h-1l-1-5v-7z" fill="#0A2F2A"/>
<path transform="translate(657,712)" d="m0 0h9l9 3v1h-9l-9-3z" fill="#0A312B"/>
<path transform="translate(1123,609)" d="m0 0 3 2-16 11-3 1 2-4 12-8z" fill="#D9E7C1"/>
<path transform="translate(1007,960)" d="m0 0h1v10l-2 5-3-1 1-7 1-4h2z" fill="#0A312B"/>
<path transform="translate(951,929)" d="m0 0h1v11l-2 7h-1l-1-12z" fill="#0A302A"/>
<path transform="translate(1022,871)" d="m0 0 2 1v8l-3 5h-2l1-10h2z" fill="#0A302A"/>
<path transform="translate(1014,919)" d="m0 0 2 1v7l-3 6h-2l1-10h2z" fill="#0A302B"/>
<path transform="translate(1082,630)" d="m0 0h2l-1 8-5 3-1-6z" fill="#FEFEFE"/>
<path transform="translate(696,968)" d="m0 0 9 2 8 4-1 2-8-2v-2l-4-1-4-2z" fill="#0A302B"/>
<path transform="translate(676,960)" d="m0 0 10 2 7 4-1 2-7-2-5-3-4-2z" fill="#0A312B"/>
<path transform="translate(748,618)" d="m0 0h5v2h5l6 2v2l-9-1-7-4z" fill="#0A312B"/>
<path transform="translate(1e3 990)" d="m0 0h1v9l-2 9-2 1v-9l1-5h2z" fill="#0A322C"/>
<path transform="translate(1236,569)" d="m0 0 3 1v2l-9 6h-2l2-4 4-4z" fill="#0A312B"/>
<path transform="translate(1262,596)" d="m0 0 2 4-1 7-2 4h-1v-10z" fill="#0A2F2A"/>
<path transform="translate(943,978)" d="m0 0h1v11l-2 6h-1v-12z" fill="#0A312B"/>
<path transform="translate(835,649)" d="m0 0 7 1 4 2v2l3 1-8-1-5-2z" fill="#0A322C"/>
<path transform="translate(958,709)" d="m0 0h1v10l-1 4h-2v-12h2z" fill="#0A2F2A"/>
<path transform="translate(773 1e3)" d="m0 0 8 1 8 4 1 2-7-1-5-3-5-2z" fill="#0A302B"/>
<path transform="translate(960,643)" d="m0 0 5 2 10 7-3 1-12-8z" fill="#D0E1B6"/>
<path transform="translate(852,1031)" d="m0 0 10 3 3 2-1 2h-3l-2-2-6-2z" fill="#0A312B"/>
<path transform="translate(756,993)" d="m0 0h6l7 4-4 2-3-1v-2l-6-2z" fill="#0A302A"/>
<path transform="translate(658,953)" d="m0 0 8 1 6 3v2l-7-1-1-3-6-1z" fill="#0A312B"/>
<path transform="translate(1245,688)" d="m0 0h2v9l-2 6h-1v-10z" fill="#0A332D"/>
<path transform="translate(814,642)" d="m0 0 8 1 7 3v1h-8l-7-4z" fill="#0A312B"/>
<path transform="translate(707,512)" d="m0 0h9l3 3h-12z" fill="#0A322C"/>
<path transform="translate(1221,534)" d="m0 0 3 1-1 4-5 2-1-3z" fill="#FEFEFE"/>
<path transform="translate(499,228)" d="m0 0h3v2l-14 7-2-1 9-6z" fill="#A8CA87"/>
<path transform="translate(872,1040)" d="m0 0 7 1 4 4-8-1-3-2z" fill="#0A302B"/>
<path transform="translate(816,1016)" d="m0 0 9 3 4 2-1 2-12-5z" fill="#0A312B"/>
<path transform="translate(796,1008)" d="m0 0 7 2 7 4-2 1-12-5z" fill="#0A302B"/>
<path transform="translate(1059,827)" d="m0 0h1v8l-1 5-3-1z" fill="#0A322C"/>
<path transform="translate(662,662)" d="m0 0h1v11l-1 2h-2v-7z" fill="#0A302A"/>
<path transform="translate(1237,525)" d="m0 0h2l1 5-6 3 1-6z" fill="#E5EECE"/>
<path transform="translate(1239,731)" d="m0 0h1l-1 12-2 2v-11z" fill="#0A302A"/>
<path transform="translate(733,611)" d="m0 0 9 4v1l-9-1-2-1v-2z" fill="#0A312B"/>
<path transform="translate(861,657)" d="m0 0 6 3v2l-6-1-4-2z" fill="#0A312B"/>
</svg>
